<?xml version="1.0" encoding="UTF-8" standalone="no"?><!DOCTYPE svg PUBLIC "-//W3C//DTD SVG 1.1//EN" "http://www.w3.org/Graphics/SVG/1.1/DTD/svg11.dtd"><svg width="100%" height="100%" viewBox="0 0 1182 1182" version="1.1" xmlns="http://www.w3.org/2000/svg" xmlns:xlink="http://www.w3.org/1999/xlink" xml:space="preserve" xmlns:serif="http://www.serif.com/" style="fill-rule:evenodd;clip-rule:evenodd;stroke-linecap:round;stroke-linejoin:round;stroke-miterlimit:1.5;"><rect id="Artboard2" x="0" y="0" width="1181.1" height="1181.1" style="fill:none;"/><clipPath id="_clip1"><rect x="0" y="0" width="1181.1" height="1181.1"/></clipPath><g clip-path="url(#_clip1)"><g><path d="M572.146,142.725c-0,-3.651 -2.964,-6.615 -6.615,-6.615l-538.937,0c-3.65,0 -6.614,2.964 -6.614,6.615l0,152.126c0,3.65 2.964,6.614 6.614,6.614l538.937,-0c3.651,-0 6.615,-2.964 6.615,-6.614l-0,-152.126Z" style="fill:none;stroke:#000;stroke-width:2.36px;"/><text x="263.154px" y="235.517px" style="font-family:'Gotham-Bold', 'Gotham';font-weight:700;font-size:45.833px;fill:#262626;">Sofa lamp</text><path d="M104.741,197.954c-0,-4.625 3.708,-8.333 8.333,-8.333l14.583,-0c4.584,-0 8.334,3.75 8.334,8.333l-0,9c-4.834,1.709 -8.334,6.292 -8.334,11.709l0,8.458l-22.916,-0l-0,-29.167m-27.084,20.667l0,8.5l22.917,-0l0,-29.167c0,-4.625 -3.708,-8.333 -8.333,-8.333l-14.584,-0c-4.583,-0 -8.333,3.75 -8.333,8.333l0,8.959c4.833,1.708 8.333,6.333 8.333,11.708m61.084,-8.042c-4.084,0.667 -6.917,4.542 -6.917,8.709l0,12l-58.333,-0l-0,-12.5c-0,-4.584 -3.709,-8.334 -8.334,-8.334c-4.625,0 -8.333,3.75 -8.333,8.334l0,20.833c0,4.583 3.75,8.333 8.333,8.333l0,8.334l8.334,-0l-0,-8.334l58.333,0l0,8.334l8.333,-0l0,-8.334c4.584,0 8.334,-3.75 8.334,-8.333l-0,-20.833c-0,-5.042 -4.542,-9.084 -9.75,-8.209Z" style="fill-rule:nonzero;"/><path d="M1159.92,142.725c0,-3.651 -2.963,-6.615 -6.614,-6.615l-538.937,0c-3.65,0 -6.614,2.964 -6.614,6.615l-0,152.126c-0,3.65 2.964,6.614 6.614,6.614l538.937,-0c3.651,-0 6.614,-2.964 6.614,-6.614l0,-152.126Z" style="fill:none;stroke:#000;stroke-width:2.36px;"/><text x="841.162px" y="235.517px" style="font-family:'Gotham-Bold', 'Gotham';font-weight:700;font-size:45.833px;fill:#262626;">Floor lamp</text><path d="M572.146,354.747c-0,-3.65 -2.964,-6.614 -6.615,-6.614l-538.937,0c-3.65,0 -6.614,2.964 -6.614,6.614l0,152.126c0,3.651 2.964,6.614 6.614,6.614l538.937,0c3.651,0 6.615,-2.963 6.615,-6.614l-0,-152.126Z" style="fill:none;stroke:#000;stroke-width:2.36px;"/><text x="327.985px" y="447.539px" style="font-family:'Gotham-Bold', 'Gotham';font-weight:700;font-size:45.833px;fill:#262626;">Plug</text><path d="M572.146,566.77c-0,-3.65 -2.964,-6.614 -6.615,-6.614l-538.937,-0c-3.65,-0 -6.614,2.964 -6.614,6.614l0,152.126c0,3.65 2.964,6.614 6.614,6.614l538.937,0c3.651,0 6.615,-2.964 6.615,-6.614l-0,-152.126Z" style="fill:none;stroke:#000;stroke-width:2.36px;"/><text x="247.983px" y="659.562px" style="font-family:'Gotham-Bold', 'Gotham';font-weight:700;font-size:45.833px;fill:#262626;">Shutter left</text><path d="M1159.92,354.747c0,-3.65 -2.963,-6.614 -6.614,-6.614l-538.937,0c-3.65,0 -6.614,2.964 -6.614,6.614l-0,152.126c-0,3.651 2.964,6.614 6.614,6.614l538.937,0c3.651,0 6.614,-2.963 6.614,-6.614l0,-152.126Z" style="fill:none;stroke:#000;stroke-width:2.36px;"/><text x="915.205px" y="447.539px" style="font-family:'Gotham-Bold', 'Gotham';font-weight:700;font-size:45.833px;fill:#262626;">Tree</text><path d="M1159.92,566.77c0,-3.65 -2.963,-6.614 -6.614,-6.614l-538.937,-0c-3.65,-0 -6.614,2.964 -6.614,6.614l-0,152.126c-0,3.65 2.964,6.614 6.614,6.614l538.937,0c3.651,0 6.614,-2.964 6.614,-6.614l0,-152.126Z" style="fill:none;stroke:#000;stroke-width:2.36px;"/><text x="819.23px" y="659.562px" style="font-family:'Gotham-Bold', 'Gotham';font-weight:700;font-size:45.833px;fill:#262626;">Shutter right</text><path d="M572.146,778.793c-0,-3.651 -2.964,-6.614 -6.615,-6.614l-538.937,-0c-3.65,-0 -6.614,2.963 -6.614,6.614l0,152.126c0,3.65 2.964,6.614 6.614,6.614l538.937,-0c3.651,-0 6.615,-2.964 6.615,-6.614l-0,-152.126Z" style="fill:none;stroke:#000;stroke-width:2.36px;"/><text x="220.437px" y="871.585px" style="font-family:'Gotham-Bold', 'Gotham';font-weight:700;font-size:45.833px;fill:#262626;">Food is ready</text><path d="M1159.92,778.793c0,-3.651 -2.963,-6.614 -6.614,-6.614l-538.937,-0c-3.65,-0 -6.614,2.963 -6.614,6.614l-0,152.126c-0,3.65 2.964,6.614 6.614,6.614l538.937,-0c3.651,-0 6.614,-2.964 6.614,-6.614l0,-152.126Z" style="fill:none;stroke:#000;stroke-width:2.36px;"/><text x="801.195px" y="871.585px" style="font-family:'Gotham-Bold', 'Gotham';font-weight:700;font-size:45.833px;fill:#262626;">Everything off</text><path d="M398.373,1101.34c0.494,0.807 0.494,1.614 -0,2.421c-0.469,0.834 -1.172,1.25 -2.11,1.25l-45.619,0c-0.937,0 -1.653,-0.416 -2.148,-1.25c-0.469,-0.807 -0.456,-1.614 0.039,-2.421l20.583,-35.699l8.671,0l20.584,35.699Z" style="fill:#181718;fill-rule:nonzero;"/><path d="M599.551,1057.92c-0,-0.619 0.213,-1.143 0.643,-1.571c0.452,-0.453 0.988,-0.679 1.606,-0.679l8.999,0c0.619,0 1.143,0.226 1.571,0.679c0.452,0.428 0.679,0.952 0.679,1.571l-0,47.244c-0,0.595 -0.227,1.119 -0.679,1.571c-0.428,0.452 -0.952,0.679 -1.571,0.679l-8.999,-0c-0.618,-0 -1.154,-0.227 -1.606,-0.679c-0.43,-0.452 -0.643,-0.976 -0.643,-1.571l-0,-47.244Zm-29.247,49.494c-0.618,-0 -1.154,-0.227 -1.606,-0.679c-0.43,-0.452 -0.643,-0.976 -0.643,-1.571l-0,-47.244c-0,-0.619 0.213,-1.143 0.643,-1.571c0.452,-0.453 0.988,-0.679 1.606,-0.679l8.999,0c0.619,0 1.143,0.226 1.57,0.679c0.453,0.428 0.68,0.952 0.68,1.571l-0,47.244c-0,0.595 -0.227,1.119 -0.68,1.571c-0.427,0.452 -0.951,0.679 -1.57,0.679l-8.999,-0Z" style="fill:#181718;fill-rule:nonzero;"/><path d="M832.567,1059.47c0.495,-0.805 0.495,-1.613 0,-2.42c-0.468,-0.833 -1.171,-1.251 -2.109,-1.251l-45.619,-0c-0.938,-0 -1.654,0.418 -2.148,1.251c-0.469,0.807 -0.456,1.615 0.039,2.42l20.583,35.699l8.671,-0l20.583,-35.699Z" style="fill:#181718;fill-rule:nonzero;"/><g transform="matrix(1,0,0,1,-2697.07,-3868.01)"><text x="2832.42px" y="3929.14px" style="font-family:'Gotham-Bold', 'Gotham';font-weight:700;font-size:41.667px;fill:#049cdb;">Home</text><text x="2832.42px" y="3970.81px" style="font-family:'Gotham-Bold', 'Gotham';font-weight:700;font-size:41.667px;fill:#049cdb;">Assistant</text></g><g id="Nodes"><path id="path8958" d="M32.323,69.407l0.118,32.296c0,-0 0,-1.417 0,-0c0,1.417 1.215,1.417 1.215,1.417l68.813,-0c0,-0 -1.619,-0 0,-0c1.214,-0 1.242,-1.631 1.242,-1.631l-0.028,-32.169l9.715,0c2.024,0 2.024,-2.226 0.336,-3.758l-10.253,-10.409l0,-15.18c0,0 0,1.417 0,0c0,-1.619 -1.417,-1.619 -1.417,-1.619l-8.095,0c-0,0 1.619,0 -0,0c-1.619,0 -1.619,1.822 -1.619,1.822l-0,4.048c-0,-0 -22.801,-22.73 -22.794,-22.75c-1.089,-1.133 -1.898,-1.133 -3.036,-0.202l-44.805,44.81c-0,-0 -1.281,1.51 0.065,2.862c0.469,0.47 1.682,0.376 1.682,0.376l8.861,0.087Z" style="fill:#049cdb;"/><path id="path5945-49-1-0-9-9-3-4" d="M58.452,45.697c0.946,-0.946 2.482,-0.946 3.428,0c0.945,0.946 0.945,2.482 -0,3.427c-0.946,0.946 -2.482,0.946 -3.428,0c-0.945,-0.945 -0.945,-2.481 0,-3.427Z" style="fill:#049cdb;stroke:#fff;stroke-width:1.82px;stroke-linecap:butt;stroke-linejoin:miter;stroke-miterlimit:4;"/><path id="path8469-9-2" d="M61.569,48.874l5.832,5.831" style="fill:none;stroke:#fff;stroke-width:2.02px;stroke-linecap:butt;stroke-linejoin:miter;stroke-miterlimit:4;"/><path id="path5945-49-1-0-9-9-3-7" d="M93.308,60.177c-0.946,-0.946 -2.481,-0.946 -3.427,-0c-0.946,0.945 -0.946,2.481 -0,3.427c0.946,0.946 2.481,0.946 3.427,-0c0.946,-0.946 0.946,-2.482 0,-3.427Z" style="fill:#049cdb;stroke:#fff;stroke-width:1.82px;stroke-linecap:butt;stroke-linejoin:miter;stroke-miterlimit:4;"/><path id="path8469-9-7" d="M89.864,63.821l-5.954,5.954" style="fill:none;stroke:#fff;stroke-width:2.02px;stroke-linecap:butt;stroke-linejoin:miter;stroke-miterlimit:4;"/><path id="path5945-49-1-0-9-9-3-7-8" d="M76.467,45.804c-0.945,-0.945 -2.481,-0.945 -3.427,0c-0.946,0.946 -0.946,2.482 0,3.428c0.946,0.945 2.482,0.945 3.427,-0c0.946,-0.946 0.946,-2.482 0,-3.428Z" style="fill:#049cdb;stroke:#fff;stroke-width:1.82px;stroke-linecap:butt;stroke-linejoin:miter;stroke-miterlimit:4;"/><path id="path8469-9-7-7" d="M73.35,48.981l-5.749,5.749" style="fill:none;stroke:#fff;stroke-width:2.02px;stroke-linecap:butt;stroke-linejoin:miter;stroke-miterlimit:4;"/><path id="path5955" d="M47.473,53.925c-0.028,-0.02 -0.069,-0.037 -0.093,-0.038c-0.049,-0.001 -0.278,-0.122 -0.354,-0.188c-0.028,-0.023 -0.057,-0.043 -0.066,-0.043c-0.02,0 -0.189,-0.169 -0.189,-0.19c0,-0.009 -0.028,-0.048 -0.063,-0.085c-0.036,-0.038 -0.064,-0.084 -0.064,-0.102c-0,-0.017 -0.012,-0.032 -0.026,-0.032c-0.014,0 -0.025,-0.017 -0.025,-0.038c-0,-0.04 -0.008,-0.058 -0.086,-0.213c-0.06,-0.121 -0.06,-0.629 0,-0.75c0.078,-0.155 0.086,-0.173 0.086,-0.212c-0,-0.022 0.011,-0.039 0.025,-0.039c0.014,-0 0.026,-0.015 0.026,-0.033c-0,-0.083 0.318,-0.402 0.401,-0.402c0.018,0 0.033,-0.011 0.033,-0.025c0,-0.014 0.018,-0.026 0.039,-0.026c0.021,0 0.058,-0.01 0.083,-0.022c0.145,-0.073 0.25,-0.105 0.347,-0.105c0.06,-0 0.122,-0.014 0.139,-0.031c0.024,-0.024 0.038,-0.024 0.062,-0c0.017,0.017 0.079,0.031 0.139,0.031c0.097,-0 0.202,0.032 0.347,0.105c0.025,0.012 0.057,0.022 0.072,0.022c0.014,0 0.058,0.029 0.095,0.064c0.038,0.035 0.082,0.064 0.098,0.064c0.038,0 0.291,0.255 0.291,0.293c0,0.017 0.029,0.058 0.064,0.091c0.035,0.033 0.064,0.081 0.064,0.106c0,0.026 0.012,0.047 0.026,0.047c0.014,-0 0.026,0.026 0.026,0.057c0,0.032 0.018,0.08 0.038,0.108c0.021,0.027 0.038,0.092 0.038,0.145c-0,0.053 0.011,0.103 0.025,0.112c0.034,0.021 0.034,0.523 0,0.523c-0.014,0 -0.025,0.021 -0.025,0.046c-0,0.024 -0.029,0.087 -0.064,0.139c-0.035,0.052 -0.064,0.1 -0.064,0.108c0,0.025 -0.241,0.244 -0.268,0.244c-0.009,0 -0.043,0.028 -0.076,0.061c-0.034,0.034 -0.097,0.077 -0.14,0.096c-0.043,0.019 -0.078,0.043 -0.078,0.054c-0,0.01 -0.027,0.019 -0.061,0.019c-0.033,0 -0.075,0.017 -0.092,0.039c-0.046,0.054 -0.658,0.055 -0.73,0.001l-0,-0.001Z" style="fill-opacity:0.94;fill-rule:nonzero;stroke:#fff;stroke-width:1.62px;stroke-linecap:butt;stroke-linejoin:miter;stroke-miterlimit:4;"/><path id="path5957" d="M47.473,53.925c-0.028,-0.02 -0.069,-0.037 -0.093,-0.038c-0.049,-0.001 -0.278,-0.122 -0.354,-0.188c-0.028,-0.023 -0.057,-0.043 -0.066,-0.043c-0.02,0 -0.189,-0.169 -0.189,-0.19c0,-0.009 -0.028,-0.048 -0.063,-0.085c-0.036,-0.038 -0.064,-0.084 -0.064,-0.102c-0,-0.017 -0.012,-0.032 -0.026,-0.032c-0.014,0 -0.025,-0.017 -0.025,-0.038c-0,-0.04 -0.008,-0.058 -0.086,-0.213c-0.06,-0.121 -0.06,-0.629 0,-0.75c0.078,-0.155 0.086,-0.173 0.086,-0.212c-0,-0.022 0.011,-0.039 0.025,-0.039c0.014,-0 0.026,-0.015 0.026,-0.033c-0,-0.083 0.318,-0.402 0.401,-0.402c0.018,0 0.033,-0.011 0.033,-0.025c0,-0.014 0.018,-0.026 0.039,-0.026c0.021,0 0.058,-0.01 0.083,-0.022c0.145,-0.073 0.25,-0.105 0.347,-0.105c0.06,-0 0.122,-0.014 0.139,-0.031c0.024,-0.024 0.038,-0.024 0.062,-0c0.017,0.017 0.079,0.031 0.139,0.031c0.097,-0 0.202,0.032 0.347,0.105c0.025,0.012 0.057,0.022 0.072,0.022c0.014,0 0.058,0.029 0.095,0.064c0.038,0.035 0.082,0.064 0.098,0.064c0.038,0 0.291,0.255 0.291,0.293c0,0.017 0.029,0.058 0.064,0.091c0.035,0.033 0.064,0.081 0.064,0.106c0,0.026 0.012,0.047 0.026,0.047c0.014,-0 0.026,0.026 0.026,0.057c0,0.032 0.018,0.08 0.038,0.108c0.021,0.027 0.038,0.092 0.038,0.145c-0,0.053 0.011,0.103 0.025,0.112c0.034,0.021 0.034,0.523 0,0.523c-0.014,0 -0.025,0.021 -0.025,0.046c-0,0.024 -0.029,0.087 -0.064,0.139c-0.035,0.052 -0.064,0.1 -0.064,0.108c0,0.025 -0.241,0.244 -0.268,0.244c-0.009,0 -0.043,0.028 -0.076,0.061c-0.034,0.034 -0.097,0.077 -0.14,0.096c-0.043,0.019 -0.078,0.043 -0.078,0.054c-0,0.01 -0.027,0.019 -0.061,0.019c-0.033,0 -0.075,0.017 -0.092,0.039c-0.046,0.054 -0.658,0.055 -0.73,0.001l-0,-0.001Z" style="fill-opacity:0.94;fill-rule:nonzero;stroke:#fff;stroke-width:1.62px;stroke-linecap:butt;stroke-linejoin:miter;stroke-miterlimit:4;"/><circle id="path5945-49-1-0-9-9" cx="84.124" cy="52.855" r="2.423" style="fill:#049cdb;stroke:#fff;stroke-width:1.82px;stroke-linecap:butt;stroke-linejoin:miter;stroke-miterlimit:4;"/><path id="path8469" d="M84.184,54.984l-0,21.05" style="fill:none;stroke:#fff;stroke-width:2.02px;stroke-linecap:butt;stroke-linejoin:miter;stroke-miterlimit:4;"/><path id="path5945-49-1-0-9-9-4" d="M46.141,81.747c0.946,-0.946 2.481,-0.946 3.427,-0c0.946,0.945 0.946,2.481 0,3.427c-0.946,0.946 -2.481,0.946 -3.427,-0c-0.946,-0.946 -0.946,-2.482 -0,-3.427Z" style="fill:#049cdb;stroke:#fff;stroke-width:1.82px;stroke-linecap:butt;stroke-linejoin:miter;stroke-miterlimit:4;"/><path id="path8469-8" d="M66.742,102.408l-17.566,-17.567" style="fill:none;stroke:#fff;stroke-width:2.02px;stroke-linecap:butt;stroke-linejoin:miter;stroke-miterlimit:4;"/><circle id="path5945-49-1-0-9-9-5" cx="60.008" cy="85.069" r="2.423" style="fill:#049cdb;stroke:#fff;stroke-width:1.82px;stroke-linecap:butt;stroke-linejoin:miter;stroke-miterlimit:4;"/><path id="path8469-2" d="M59.965,87.096l0,9.017" style="fill:none;stroke:#fff;stroke-width:2.02px;stroke-linecap:butt;stroke-linejoin:miter;stroke-miterlimit:4;"/><path id="path8469-8-6" d="M67.399,82.42l-19.878,-19.878" style="fill:none;stroke:#fff;stroke-width:2.02px;stroke-linecap:butt;stroke-linejoin:miter;stroke-miterlimit:4;"/><path id="path8469-8-6-9" d="M68.095,102.401l7.293,-7.293" style="fill:none;stroke:#fff;stroke-width:2.02px;stroke-linecap:butt;stroke-linejoin:miter;stroke-miterlimit:4;"/><path id="path8469-8-6-6" d="M67.302,92.462l17.21,-17.209" style="fill:none;stroke:#fff;stroke-width:2.02px;stroke-linecap:butt;stroke-linejoin:miter;stroke-miterlimit:4;"/><circle id="path5945-49-1-0-9-9-47" cx="75.345" cy="73.409" r="2.423" style="fill:#049cdb;stroke:#fff;stroke-width:1.82px;stroke-linecap:butt;stroke-linejoin:miter;stroke-miterlimit:4;"/><path id="path8469-7" d="M75.303,75.435l-0,9.14" style="fill:none;stroke:#fff;stroke-width:2.02px;stroke-linecap:butt;stroke-linejoin:miter;stroke-miterlimit:4;"/><circle id="path5945-49-1-0-9-9-2" cx="47.858" cy="52.646" r="2.423" style="fill:#049cdb;stroke:#fff;stroke-width:1.82px;stroke-linecap:butt;stroke-linejoin:miter;stroke-miterlimit:4;"/><path id="path8469-3" d="M47.816,54.673l0,8.607" style="fill:none;stroke:#fff;stroke-width:2.02px;stroke-linecap:butt;stroke-linejoin:miter;stroke-miterlimit:4;"/><circle id="path5945-49-1-0-9-9-7" cx="56.781" cy="61.295" r="2.423" style="fill:#049cdb;stroke:#fff;stroke-width:1.82px;stroke-linecap:butt;stroke-linejoin:miter;stroke-miterlimit:4;"/><path id="path8469-32" d="M56.739,63.322l-0,8.648" style="fill:none;stroke:#fff;stroke-width:2.02px;stroke-linecap:butt;stroke-linejoin:miter;stroke-miterlimit:4;"/><path id="path5945-49-1-0-9-9-3" d="M74.869,60.193c0.946,-0.946 2.481,-0.946 3.427,-0c0.946,0.946 0.946,2.481 0,3.427c-0.946,0.946 -2.481,0.946 -3.427,0c-0.946,-0.946 -0.946,-2.481 -0,-3.427Z" style="fill:#049cdb;stroke:#fff;stroke-width:1.82px;stroke-linecap:butt;stroke-linejoin:miter;stroke-miterlimit:4;"/><path id="path8469-9" d="M78.17,63.78l5.995,5.995" style="fill:none;stroke:#fff;stroke-width:2.02px;stroke-linecap:butt;stroke-linejoin:miter;stroke-miterlimit:4;"/><path id="path5945-49-1-0-9-9-6" d="M93.83,83.905c0,1.338 -1.085,2.424 -2.423,2.424c-1.337,-0 -2.423,-1.086 -2.423,-2.424c-0,-1.337 1.086,-2.423 2.423,-2.423c1.338,0 2.423,1.086 2.423,2.423Z" style="fill:#049cdb;stroke:#fff;stroke-width:1.82px;stroke-linecap:butt;stroke-linejoin:miter;stroke-miterlimit:4;"/><path id="path8469-33" d="M89.38,83.863l-13.601,0" style="fill:none;stroke:#fff;stroke-width:2.02px;stroke-linecap:butt;stroke-linejoin:miter;stroke-miterlimit:4;"/><path id="path5945-49-1-0-9-9-55" d="M87.791,95.347c0,1.338 -1.086,2.424 -2.423,2.424c-1.338,-0 -2.424,-1.086 -2.424,-2.424c0,-1.337 1.086,-2.423 2.424,-2.423c1.337,0 2.423,1.086 2.423,2.423Z" style="fill:#049cdb;stroke:#fff;stroke-width:1.82px;stroke-linecap:butt;stroke-linejoin:miter;stroke-miterlimit:4;"/><path id="path8469-21" d="M83.341,95.305l-8.771,0" style="fill:none;stroke:#fff;stroke-width:2.02px;stroke-linecap:butt;stroke-linejoin:miter;stroke-miterlimit:4;"/><path id="path5945-49-1-0-9-9-3-9" d="M47.148,95.343c-0,-1.337 1.086,-2.423 2.423,-2.423c1.338,-0 2.424,1.086 2.424,2.423c-0,1.338 -1.086,2.424 -2.424,2.424c-1.337,-0 -2.423,-1.086 -2.423,-2.424Z" style="fill:#049cdb;stroke:#fff;stroke-width:1.82px;stroke-linecap:butt;stroke-linejoin:miter;stroke-miterlimit:4;"/><path id="path8469-9-6" d="M51.598,95.385l9.181,0" style="fill:none;stroke:#fff;stroke-width:1.82px;stroke-linecap:butt;stroke-linejoin:miter;stroke-miterlimit:4;"/><path id="path5945-49-1-0-9-9-3-9-7" d="M44.034,71.739c0,-1.337 1.086,-2.423 2.424,-2.423c1.337,-0 2.423,1.086 2.423,2.423c0,1.338 -1.086,2.424 -2.423,2.424c-1.338,-0 -2.424,-1.086 -2.424,-2.424Z" style="fill:#049cdb;stroke:#fff;stroke-width:1.82px;stroke-linecap:butt;stroke-linejoin:miter;stroke-miterlimit:4;"/><path id="path8469-9-6-7" d="M48.485,71.782l8.853,-0" style="fill:none;stroke:#fff;stroke-width:2.02px;stroke-linecap:butt;stroke-linejoin:miter;stroke-miterlimit:4;"/><path id="path8469-3-9" d="M67.471,53.768l0,49.366" style="fill:none;stroke:#fff;stroke-width:2.02px;stroke-linecap:butt;stroke-linejoin:miter;stroke-miterlimit:4;"/><path id="path8469-9-6-9" d="M66.034,102.215l2.763,0" style="fill:none;stroke:#fff;stroke-width:1.82px;stroke-linecap:butt;stroke-linejoin:miter;stroke-miterlimit:4;"/></g><path d="M119.324,409.977l0,-16.667l-8.333,0l-0,16.667l-16.667,-0l0,-16.667l-8.333,0l-0,16.667c-4.167,-0 -8.334,4.167 -8.334,8.333l0,22.917l14.584,14.583l-0,12.5l20.833,0l0,-12.5l14.583,-14.583l0,-22.917c0,-4.166 -4.166,-8.333 -8.333,-8.333Z" style="fill-rule:nonzero;"/><path d="M65.157,609.5l75,-0l0,16.666l-8.333,0l0,50l-8.333,0l-0,-50l-41.667,0l0,50l-8.333,0l-0,-50l-8.334,0l0,-16.666m20.834,20.833l33.333,0l0,8.333l-33.333,0l-0,-8.333m-0,12.5l33.333,0l0,8.333l-33.333,0l-0,-8.333m-0,12.5l33.333,0l0,8.333l-33.333,0l-0,-8.333m-0,12.5l33.333,0l0,8.333l-33.333,0l-0,-8.333Z" style="fill-rule:nonzero;"/><path d="M652.928,609.5l75,-0l0,16.666l-8.333,0l-0,50l-8.334,0l0,-50l-41.666,0l-0,50l-8.334,0l0,-50l-8.333,0l0,-16.666m20.833,20.833l33.334,0l-0,8.333l-33.334,0l0,-8.333m0,12.5l33.334,0l-0,8.333l-33.334,0l0,-8.333m0,12.5l33.334,0l-0,8.333l-33.334,0l0,-8.333m0,12.5l33.334,0l-0,8.333l-33.334,0l0,-8.333Z" style="fill-rule:nonzero;"/><path d="M135.991,846.522c8.333,12.5 -12.5,50 -20.834,50c-8.333,0 -8.333,-4.166 -12.5,-4.166c-4.166,-0 -4.166,4.166 -12.5,4.166c-8.333,0 -29.166,-37.5 -20.833,-50c8.333,-12.5 20.833,-12.5 29.167,-8.333l-0,-12.5c-23.417,12.792 -28.709,-5.083 -28.709,-5.083c0,-0 11.084,-14.959 28.709,5.083l-0,-8.333l8.333,-0l0,20.833c8.333,-4.167 20.833,-4.167 29.167,8.333Z" style="fill-rule:nonzero;"/><path d="M702.928,177.121l8.333,29.167l-41.666,-0l8.333,-29.167m8.333,33.333l8.334,0l-0,41.667l12.5,-0l-0,8.333l-33.334,0l0,-8.333l12.5,-0l0,-41.667Z" style="fill-rule:nonzero;"/><path d="M709.428,827.522l-6.042,6.042c7.209,4.375 12.042,12.25 12.042,21.292c0,13.714 -11.285,25 -25,25c-13.714,-0 -25,-11.286 -25,-25c0,-9.042 4.833,-16.917 12,-21.334l-6,-6c-8.667,6 -14.333,16 -14.333,27.334c-0,18.286 15.047,33.333 33.333,33.333c18.286,0 33.333,-15.047 33.333,-33.333c0,-11.334 -5.666,-21.334 -14.333,-27.334m-14.833,-10.166l-8.334,-0l0,41.666l8.334,0" style="fill-rule:nonzero;"/><path d="M682.095,468.31l-0,-12.5l-29.167,0l20.833,-20.833l-12.5,-0l20.834,-20.833l-12.5,-0l20.833,-20.834l20.833,20.834l-12.5,-0l20.834,20.833l-12.5,-0l20.833,20.833l-29.167,0l0,12.5l-16.666,0Z" style="fill-rule:nonzero;"/><rect x="0" y="0" width="1181.1" height="1181.1" style="fill:none;stroke:#939393;stroke-opacity:0.1;stroke-width:1.18px;"/></g></g></svg>