<?xml version="1.0" encoding="utf-8" standalone="no"?><svg xmlns="http://www.w3.org/2000/svg" xmlns:xlink="http://www.w3.org/1999/xlink" width="105.07979999999999mm" height="105.07979999999999mm" viewBox="4010 3438 413.7 413.7"><title>front panel</title><style type="text/css">
path, polyline, polygon {stroke-linejoin:round;}
path, polyline, polygon, line {stroke-linecap:round;}
rect, circle, ellipse, polyline, polygon, line, path {shape-rendering:crispEdges;}
*[layerid="0"] {stroke:#FFFFFF; FILL:#FFFFFF;}*[layerid="1"] {stroke:#FF0000; fill:#FF0000;}*[layerid="2"] {stroke:#0000FF; fill:#0000FF;}*[layerid="3"] {stroke:#FFCC00; fill:#FFCC00;}*[layerid="4"] {stroke:#66CC33; fill:#66CC33;}*[layerid="5"] {stroke:#808080; fill:#808080;}*[layerid="6"] {stroke:#800000; fill:#800000;}*[layerid="7"] {stroke:#800080; fill:#800080;}*[layerid="8"] {stroke:#AA00FF; fill:#AA00FF;}*[layerid="9"] {display:none}*[layerid="10"] {stroke:#FF00FF; fill:#FF00FF;}*[layerid="11"] {stroke:#C0C0C0; fill:#C0C0C0;}*[layerid="12"] {stroke:#FFFFFF; fill:#FFFFFF;}*[layerid="13"] {stroke:#33CC99; fill:#33CC99;}*[layerid="14"] {stroke:#5555FF; fill:#5555FF;}*[layerid="15"] {stroke:#F022F0; fill:#F022F0;}*[layerid="16"] {stroke:#FFFFFF; FILL:#FFFFFF;}*[layerid="17"] {stroke:#FFFFFF; FILL:#FFFFFF;}*[layerid="18"] {stroke:#FFFFFF; FILL:#FFFFFF;}*[layerid="19"] {stroke:#66CCFF; fill:#66CCFF;}*[layerid="20"] {stroke:#FFFFFF; FILL:#FFFFFF;}*[layerid="21"] {stroke:#999966; fill:#999966;}*[layerid="22"] {stroke:#008000; fill:#008000;}*[layerid="23"] {stroke:#00FF00; fill:#00FF00;}*[layerid="24"] {stroke:#BC8E00; fill:#BC8E00;}*[fill="none"] {fill: none;}
*[stroke="none"] {stroke: none;}
g[c_partid="part_pad"] > * + circle {fill: #222222;}
g[c_partid="part_via"] > * + circle {fill: #222222;}
g[c_partid="part_pad"] > polyline:nth-of-type(2) {stroke: #222222;}g[c_partid="part_pad"][c_shape="ELLIPSE"]  polyline:nth-last-of-type(1) {stroke:#222222;}g[c_partid="part_pad"][c_shape="RECT"]  polyline:nth-last-of-type(1) {stroke:#222222;}g[c_partid="part_pad"][c_shape="POLYGON"]  polyline:nth-last-of-type(1) {stroke:#222222;}g[c_partid="part_pad"] > polygon[c_etype="pad_outer"], #gCurParts g[c_partid="part_pad"] > polygon[c_etype="pad_outer"] {stroke-linejoin: miter;stroke-miterlimit: 100;}</style>
<rect x="4010" y="3438" width="413.7" height="413.7" fill="#000000" stroke="none"/><g importFlag="0"><g><polyline points="4020 3448 4413.7008 3448 4413.7008 3841.7008 4020 3841.7008 4020 3448" stroke-width="1" c_shapetype="line" stroke-linecap="round" fill="none" layerid="10" locked="0"/><polyline points="4020 3822.0159 4020 3448" stroke-width="1" c_shapetype="line" stroke-linecap="round" fill="none" layerid="10" locked="0"/></g><g><polyline points="4060.5 3668 4070 3677.5 4070 3678" stroke-width="1.5748" c_shapetype="line" stroke-linecap="round" fill="none" layerid="1" locked="0"/><polyline points="4071 3737.5 4077 3743.5" stroke-width="1.5748" c_shapetype="line" stroke-linecap="round" fill="none" layerid="1" locked="0"/><polyline points="4040 3458 4040 3499.5" stroke-width="1.5748" c_shapetype="line" stroke-linecap="round" fill="none" layerid="1" locked="0"/><rect x="4027.087" y="3493.276" width="183.858" height="55.118" stroke-width="0" c_etype="" transform="" layerid="1" locked="1" c_shapetype="line"/><rect x="4222.756" y="3493.276" width="183.858" height="55.118" stroke-width="0" c_etype="" transform="" layerid="1" locked="1" c_shapetype="line"/><rect x="4027.087" y="3564.142" width="183.858" height="55.118" stroke-width="0" c_etype="" transform="" layerid="1" locked="1" c_shapetype="line"/><rect x="4222.756" y="3564.142" width="183.858" height="55.118" stroke-width="0" c_etype="" transform="" layerid="1" locked="1" c_shapetype="line"/><rect x="4027.087" y="3634.614" width="183.858" height="55.118" stroke-width="0" c_etype="" transform="" layerid="1" locked="1" c_shapetype="line"/><rect x="4222.756" y="3634.614" width="183.858" height="55.118" stroke-width="0" c_etype="" transform="" layerid="1" locked="1" c_shapetype="line"/><rect x="4027.087" y="3705.48" width="183.858" height="55.118" stroke-width="0" c_etype="" transform="" layerid="1" locked="1" c_shapetype="line"/><rect x="4222.756" y="3705.48" width="183.858" height="55.118" stroke-width="0" c_etype="" transform="" layerid="1" locked="1" c_shapetype="line"/><rect x="4114.882" y="3778.709" width="59.055" height="59.055" stroke-width="0" c_etype="" transform="" layerid="1" locked="1" c_shapetype="line"/><rect x="4187.323" y="3778.709" width="59.055" height="59.055" stroke-width="0" c_etype="" transform="" layerid="1" locked="1" c_shapetype="line"/><rect x="4259.764" y="3778.709" width="59.055" height="59.055" stroke-width="0" c_etype="" transform="" layerid="1" locked="1" c_shapetype="line"/></g><g before-id="layer_4"><polyline points="4060 3458 4060.5 3458.5 4060.5 3668" stroke-width="1.5748" c_shapetype="line" stroke-linecap="round" fill="none" layerid="2" locked="0"/><polyline points="4070 3458 4071 3459 4071 3737.5" stroke-width="1.5748" c_shapetype="line" stroke-linecap="round" fill="none" layerid="2" locked="0"><title>U2_15
 width = 0.400 mm</title></polyline><polyline points="4080 3458 4080 3744 4144.5 3808.5" stroke-width="1.5748" c_shapetype="line" stroke-linecap="round" fill="none" layerid="2" locked="0"><title>U2_14
 width = 0.400 mm</title></polyline><polyline points="4090 3458 4090 3682 4215.5 3807.5" stroke-width="1.5748" c_shapetype="line" stroke-linecap="round" fill="none" layerid="2" locked="0"><title>A
 width = 0.400 mm</title></polyline><polyline points="4110 3458 4110 3525.5 4315.5 3731" stroke-width="1.5748" c_shapetype="line" stroke-linecap="round" fill="none" layerid="2" locked="0"><title>U2_11
 width = 0.400 mm</title></polyline><polyline points="4120 3458 4120 3470.5 4315.5 3666" stroke-width="1.5748" c_shapetype="line" stroke-linecap="round" fill="none" layerid="2" locked="0"><title>U2_10
 width = 0.400 mm</title></polyline><polyline points="4130 3458 4266.5 3594.5 4312.5 3594.5" stroke-width="1.5748" c_shapetype="line" stroke-linecap="round" fill="none" layerid="2" locked="0"><title>U2_9
 width = 0.400 mm</title></polyline><polyline points="4100 3458 4100 3621.5 4285 3806.5" stroke-width="1.5748" c_shapetype="line" stroke-linecap="round" fill="none" layerid="2" locked="0"><title>U2_12
 width = 0.400 mm</title></polyline><polyline points="4050 3458 4050.5 3458.5 4050.5 3596.5" stroke-width="1.5748" c_shapetype="line" stroke-linecap="round" fill="none" layerid="2" locked="0"><title>N2
 width = 0.400 mm</title></polyline><polyline points="4140 3458 4203.5 3521.5 4315.5 3521.5" stroke-width="1.5748" c_shapetype="line" stroke-linecap="round" fill="none" layerid="2" locked="0"><title>U2_8
 width = 0.400 mm</title></polyline></g><g before-id="layer_10"><polyline points="4155 3453 4155 3463 4035 3463 4035 3453 4155 3453" stroke-width="1" c_shapetype="line" stroke-linecap="round" fill="none" layerid="4" locked="0"/><g c_partid="part_pcbtext" c_etype="pinpart" c_origin="4263.5,3491" c_rotation="0" c_mirror="1" locked="0" layerid="4" c_shapetype="group"><path c_fontsize="3.937" c_fontfamily="" c_text="JLCJLCJLCJLC" d="M 4261.7105 3487.0272 L 4261.7105 3489.8905 L 4261.8894 3490.4273 L 4262.0684 3490.6063 L 4262.4263 3490.7853 L 4262.7842 3490.7853 L 4263.1421 3490.6063 L 4263.321 3490.4273 L 4263.5 3489.8905 L 4263.5 3489.5326 M 4260.5293 3487.0272 L 4260.5293 3490.7853 M 4260.5293 3490.7853 L 4258.3819 3490.7853 M 4254.5165 3487.922 L 4254.6954 3487.5641 L 4255.0533 3487.2062 L 4255.4112 3487.0272 L 4256.1271 3487.0272 L 4256.485 3487.2062 L 4256.8429 3487.5641 L 4257.0218 3487.922 L 4257.2008 3488.4588 L 4257.2008 3489.3536 L 4257.0218 3489.8905 L 4256.8429 3490.2484 L 4256.485 3490.6063 L 4256.1271 3490.7853 L 4255.4112 3490.7853 L 4255.0533 3490.6063 L 4254.6954 3490.2484 L 4254.5165 3489.8905 M 4251.5458 3487.0272 L 4251.5458 3489.8905 L 4251.7248 3490.4273 L 4251.9037 3490.6063 L 4252.2616 3490.7853 L 4252.6195 3490.7853 L 4252.9775 3490.6063 L 4253.1564 3490.4273 L 4253.3354 3489.8905 L 4253.3354 3489.5326 M 4250.3647 3487.0272 L 4250.3647 3490.7853 M 4250.3647 3490.7853 L 4248.2173 3490.7853 M 4244.3518 3487.922 L 4244.5308 3487.5641 L 4244.8887 3487.2062 L 4245.2466 3487.0272 L 4245.9624 3487.0272 L 4246.3203 3487.2062 L 4246.6782 3487.5641 L 4246.8572 3487.922 L 4247.0361 3488.4588 L 4247.0361 3489.3536 L 4246.8572 3489.8905 L 4246.6782 3490.2484 L 4246.3203 3490.6063 L 4245.9624 3490.7853 L 4245.2466 3490.7853 L 4244.8887 3490.6063 L 4244.5308 3490.2484 L 4244.3518 3489.8905 M 4241.3812 3487.0272 L 4241.3812 3489.8905 L 4241.5601 3490.4273 L 4241.7391 3490.6063 L 4242.097 3490.7853 L 4242.4549 3490.7853 L 4242.8128 3490.6063 L 4242.9918 3490.4273 L 4243.1707 3489.8905 L 4243.1707 3489.5326 M 4240.2001 3487.0272 L 4240.2001 3490.7853 M 4240.2001 3490.7853 L 4238.0526 3490.7853 M 4234.1872 3487.922 L 4234.3661 3487.5641 L 4234.7241 3487.2062 L 4235.082 3487.0272 L 4235.7978 3487.0272 L 4236.1557 3487.2062 L 4236.5136 3487.5641 L 4236.6926 3487.922 L 4236.8715 3488.4588 L 4236.8715 3489.3536 L 4236.6926 3489.8905 L 4236.5136 3490.2484 L 4236.1557 3490.6063 L 4235.7978 3490.7853 L 4235.082 3490.7853 L 4234.7241 3490.6063 L 4234.3661 3490.2484 L 4234.1872 3489.8905 M 4231.2165 3487.0272 L 4231.2165 3489.8905 L 4231.3955 3490.4273 L 4231.5744 3490.6063 L 4231.9324 3490.7853 L 4232.2903 3490.7853 L 4232.6482 3490.6063 L 4232.8271 3490.4273 L 4233.0061 3489.8905 L 4233.0061 3489.5326 M 4230.0354 3487.0272 L 4230.0354 3490.7853 M 4230.0354 3490.7853 L 4227.888 3490.7853 M 4224.0225 3487.922 L 4224.2015 3487.5641 L 4224.5594 3487.2062 L 4224.9173 3487.0272 L 4225.6331 3487.0272 L 4225.9911 3487.2062 L 4226.349 3487.5641 L 4226.5279 3487.922 L 4226.7069 3488.4588 L 4226.7069 3489.3536 L 4226.5279 3489.8905 L 4226.349 3490.2484 L 4225.9911 3490.6063 L 4225.6331 3490.7853 L 4224.9173 3490.7853 L 4224.5594 3490.6063 L 4224.2015 3490.2484 L 4224.0225 3489.8905" fill="none" stroke-width="0.7874"/></g><g c_partid="part_pcbtext" c_etype="pinpart" c_origin="4210.5,3490.5" c_rotation="0" c_mirror="1" locked="0" layerid="4" c_shapetype="group"><path c_fontsize="8" c_fontfamily="" c_text="V1.0" d="M4210.5 3482.4273L4207.5909 3490.0636M4204.6818 3482.4273L4207.5909 3490.0636M4202.2818 3483.8818L4201.5545 3483.5182 4200.4636 3482.4273 4200.4636 3490.0636M4197.7 3488.2455L4198.0636 3488.6091 4197.7 3488.9727 4197.3364 3488.6091 4197.7 3488.2455M4192.7545 3482.4273L4193.8455 3482.7909 4194.5727 3483.8818 4194.9364 3485.7 4194.9364 3486.7909 4194.5727 3488.6091 4193.8455 3489.7 4192.7545 3490.0636 4192.0273 3490.0636 4190.9364 3489.7 4190.2091 3488.6091 4189.8455 3486.7909 4189.8455 3485.7 4190.2091 3483.8818 4190.9364 3482.7909 4192.0273 3482.4273 4192.7545 3482.4273" fill="none" stroke-width="0.8"/></g></g><g><g c_partid="part_via" c_etype="pinpart" c_shapetype="group" c_origin="4060.5,3668" layerid="11" locked="0" solderexpansion=""><circle cx="4060.5" cy="3668" r="1.2" stroke-width="0" c_etype="pad_shell"/><circle cx="4060.5" cy="3668" r="0.6" stroke-width="0" c_etype="pad_hole"/></g><g c_partid="part_via" c_etype="pinpart" c_shapetype="group" c_origin="4071,3737.5" layerid="11" locked="0" solderexpansion=""><circle cx="4071" cy="3737.5" r="1.2" stroke-width="0" c_etype="pad_shell"/><circle cx="4071" cy="3737.5" r="0.6" stroke-width="0" c_etype="pad_hole"/></g><g c_partid="part_via" c_etype="pinpart" c_shapetype="group" c_origin="4144.5,3808.5" layerid="11" locked="0" solderexpansion=""><circle cx="4144.5" cy="3808.5" r="1.2" stroke-width="0" c_etype="pad_shell"/><circle cx="4144.5" cy="3808.5" r="0.6" stroke-width="0" c_etype="pad_hole"/></g><g c_partid="part_via" c_etype="pinpart" c_shapetype="group" c_origin="4215.5,3807.5" layerid="11" locked="0" solderexpansion=""><circle cx="4215.5" cy="3807.5" r="1.2" stroke-width="0" c_etype="pad_shell"/><circle cx="4215.5" cy="3807.5" r="0.6" stroke-width="0" c_etype="pad_hole"/></g><g c_partid="part_via" c_etype="pinpart" c_shapetype="group" c_origin="4285,3806.5" layerid="11" locked="0" solderexpansion=""><circle cx="4285" cy="3806.5" r="1.2" stroke-width="0" c_etype="pad_shell"/><circle cx="4285" cy="3806.5" r="0.6" stroke-width="0" c_etype="pad_hole"/></g><g c_partid="part_via" c_etype="pinpart" c_shapetype="group" c_origin="4315.5,3731" layerid="11" locked="0" solderexpansion=""><circle cx="4315.5" cy="3731" r="1.2" stroke-width="0" c_etype="pad_shell"/><circle cx="4315.5" cy="3731" r="0.6" stroke-width="0" c_etype="pad_hole"/></g><g c_partid="part_via" c_etype="pinpart" c_shapetype="group" c_origin="4315.5,3666" layerid="11" locked="0" solderexpansion=""><circle cx="4315.5" cy="3666" r="1.2" stroke-width="0" c_etype="pad_shell"/><circle cx="4315.5" cy="3666" r="0.6" stroke-width="0" c_etype="pad_hole"/></g><g c_partid="part_via" c_etype="pinpart" c_shapetype="group" c_origin="4312.5,3594.5" layerid="11" locked="0" solderexpansion=""><circle cx="4312.5" cy="3594.5" r="1.2" stroke-width="0" c_etype="pad_shell"/><circle cx="4312.5" cy="3594.5" r="0.6" stroke-width="0" c_etype="pad_hole"/></g><g c_partid="part_via" c_etype="pinpart" c_shapetype="group" c_origin="4315.5,3521.5" layerid="11" locked="0" solderexpansion=""><circle cx="4315.5" cy="3521.5" r="1.2" stroke-width="0" c_etype="pad_shell"/><circle cx="4315.5" cy="3521.5" r="0.6" stroke-width="0" c_etype="pad_hole"/></g><g c_partid="part_via" c_etype="pinpart" c_shapetype="group" c_origin="4316.5,3470" layerid="11" locked="0" solderexpansion=""><circle cx="4316.5" cy="3470" r="1.2" stroke-width="0" c_etype="pad_shell"/><circle cx="4316.5" cy="3470" r="0.6" stroke-width="0" c_etype="pad_hole"/></g><g c_partid="part_pad" c_etype="pinpart" c_origin="4400,3628" layerid="11" plated="Y" c_shapetype="group" locked="0" c_rotation="270" c_width="6" c_height="6" c_shape="ELLIPSE" pasteexpansion="0" solderexpansion="0.4"><ellipse cx="4400" cy="3628" rx="3.4" ry="3.4" layerid="8" stroke-width="0" c_etype="pad_outer"/><ellipse cx="4400" cy="3628" rx="3.4" ry="3.4" layerid="7" stroke-width="0" c_etype="pad_outer"/><ellipse c_etype="pad_shell" cx="4400" cy="3628" rx="3" ry="3" layerid="11" stroke-width="0"/><circle c_etype="pad_hole" cx="4400" cy="3628" r="1.8" layerid="11" stroke-width="0"/></g><g c_partid="part_pad" c_etype="pinpart" c_origin="4390,3628" layerid="11" plated="Y" c_shapetype="group" locked="0" c_rotation="270" c_width="6" c_height="6" c_shape="ELLIPSE" pasteexpansion="0" solderexpansion="0.4"><ellipse cx="4390" cy="3628" rx="3.4" ry="3.4" layerid="8" stroke-width="0" c_etype="pad_outer"/><ellipse cx="4390" cy="3628" rx="3.4" ry="3.4" layerid="7" stroke-width="0" c_etype="pad_outer"/><ellipse c_etype="pad_shell" cx="4390" cy="3628" rx="3" ry="3" layerid="11" stroke-width="0"/><circle c_etype="pad_hole" cx="4390" cy="3628" r="1.8" layerid="11" stroke-width="0"/></g><g c_partid="part_pad" c_etype="pinpart" c_origin="4380,3628.5" layerid="11" plated="Y" c_shapetype="group" locked="0" c_rotation="270" c_width="6" c_height="6" c_shape="ELLIPSE" pasteexpansion="0" solderexpansion="0.4"><ellipse cx="4380" cy="3628.5" rx="3.4" ry="3.4" layerid="8" stroke-width="0" c_etype="pad_outer"/><ellipse cx="4380" cy="3628.5" rx="3.4" ry="3.4" layerid="7" stroke-width="0" c_etype="pad_outer"/><ellipse c_etype="pad_shell" cx="4380" cy="3628.5" rx="3" ry="3" layerid="11" stroke-width="0"/><circle c_etype="pad_hole" cx="4380" cy="3628.5" r="1.8" layerid="11" stroke-width="0"/></g><g c_partid="part_via" c_etype="pinpart" c_shapetype="group" c_origin="4050.5,3596.5" layerid="11" locked="0" solderexpansion=""><circle cx="4050.5" cy="3596.5" r="1.2" stroke-width="0" c_etype="pad_shell"/><circle cx="4050.5" cy="3596.5" r="0.6" stroke-width="0" c_etype="pad_hole"/></g><g c_partid="part_pad" c_etype="pinpart" c_origin="4150,3458" layerid="11" plated="Y" c_shapetype="group" locked="0" c_rotation="270" c_width="6" c_height="6" c_shape="ELLIPSE" pasteexpansion="0" solderexpansion="0.4"><ellipse cx="4150" cy="3458" rx="3.4" ry="3.4" layerid="8" stroke-width="0" c_etype="pad_outer"/><ellipse cx="4150" cy="3458" rx="3.4" ry="3.4" layerid="7" stroke-width="0" c_etype="pad_outer"/><ellipse c_etype="pad_shell" cx="4150" cy="3458" rx="3" ry="3" layerid="11" stroke-width="0"/><circle c_etype="pad_hole" cx="4150" cy="3458" r="1.8" layerid="11" stroke-width="0"/></g><g c_partid="part_pad" c_etype="pinpart" c_origin="4140,3458" layerid="11" plated="Y" c_shapetype="group" locked="0" c_rotation="270" c_width="6" c_height="6" c_shape="ELLIPSE" pasteexpansion="0" solderexpansion="0.4"><ellipse cx="4140" cy="3458" rx="3.4" ry="3.4" layerid="8" stroke-width="0" c_etype="pad_outer"/><ellipse cx="4140" cy="3458" rx="3.4" ry="3.4" layerid="7" stroke-width="0" c_etype="pad_outer"/><ellipse c_etype="pad_shell" cx="4140" cy="3458" rx="3" ry="3" layerid="11" stroke-width="0"/><circle c_etype="pad_hole" cx="4140" cy="3458" r="1.8" layerid="11" stroke-width="0"/></g><g c_partid="part_pad" c_etype="pinpart" c_origin="4130,3458" layerid="11" plated="Y" c_shapetype="group" locked="0" c_rotation="270" c_width="6" c_height="6" c_shape="ELLIPSE" pasteexpansion="0" solderexpansion="0.4"><ellipse cx="4130" cy="3458" rx="3.4" ry="3.4" layerid="8" stroke-width="0" c_etype="pad_outer"/><ellipse cx="4130" cy="3458" rx="3.4" ry="3.4" layerid="7" stroke-width="0" c_etype="pad_outer"/><ellipse c_etype="pad_shell" cx="4130" cy="3458" rx="3" ry="3" layerid="11" stroke-width="0"/><circle c_etype="pad_hole" cx="4130" cy="3458" r="1.8" layerid="11" stroke-width="0"/></g><g c_partid="part_pad" c_etype="pinpart" c_origin="4120,3458" layerid="11" plated="Y" c_shapetype="group" locked="0" c_rotation="270" c_width="6" c_height="6" c_shape="ELLIPSE" pasteexpansion="0" solderexpansion="0.4"><ellipse cx="4120" cy="3458" rx="3.4" ry="3.4" layerid="8" stroke-width="0" c_etype="pad_outer"/><ellipse cx="4120" cy="3458" rx="3.4" ry="3.4" layerid="7" stroke-width="0" c_etype="pad_outer"/><ellipse c_etype="pad_shell" cx="4120" cy="3458" rx="3" ry="3" layerid="11" stroke-width="0"/><circle c_etype="pad_hole" cx="4120" cy="3458" r="1.8" layerid="11" stroke-width="0"/></g><g c_partid="part_pad" c_etype="pinpart" c_origin="4110,3458" layerid="11" plated="Y" c_shapetype="group" locked="0" c_rotation="270" c_width="6" c_height="6" c_shape="ELLIPSE" pasteexpansion="0" solderexpansion="0.4"><ellipse cx="4110" cy="3458" rx="3.4" ry="3.4" layerid="8" stroke-width="0" c_etype="pad_outer"/><ellipse cx="4110" cy="3458" rx="3.4" ry="3.4" layerid="7" stroke-width="0" c_etype="pad_outer"/><ellipse c_etype="pad_shell" cx="4110" cy="3458" rx="3" ry="3" layerid="11" stroke-width="0"/><circle c_etype="pad_hole" cx="4110" cy="3458" r="1.8" layerid="11" stroke-width="0"/></g><g c_partid="part_pad" c_etype="pinpart" c_origin="4100,3458" layerid="11" plated="Y" c_shapetype="group" locked="0" c_rotation="270" c_width="6" c_height="6" c_shape="ELLIPSE" pasteexpansion="0" solderexpansion="0.4"><ellipse cx="4100" cy="3458" rx="3.4" ry="3.4" layerid="8" stroke-width="0" c_etype="pad_outer"/><ellipse cx="4100" cy="3458" rx="3.4" ry="3.4" layerid="7" stroke-width="0" c_etype="pad_outer"/><ellipse c_etype="pad_shell" cx="4100" cy="3458" rx="3" ry="3" layerid="11" stroke-width="0"/><circle c_etype="pad_hole" cx="4100" cy="3458" r="1.8" layerid="11" stroke-width="0"/></g><g c_partid="part_pad" c_etype="pinpart" c_origin="4090,3458" layerid="11" plated="Y" c_shapetype="group" locked="0" c_rotation="270" c_width="6" c_height="6" c_shape="ELLIPSE" pasteexpansion="0" solderexpansion="0.4"><ellipse cx="4090" cy="3458" rx="3.4" ry="3.4" layerid="8" stroke-width="0" c_etype="pad_outer"/><ellipse cx="4090" cy="3458" rx="3.4" ry="3.4" layerid="7" stroke-width="0" c_etype="pad_outer"/><ellipse c_etype="pad_shell" cx="4090" cy="3458" rx="3" ry="3" layerid="11" stroke-width="0"/><circle c_etype="pad_hole" cx="4090" cy="3458" r="1.8" layerid="11" stroke-width="0"/></g><g c_partid="part_pad" c_etype="pinpart" c_origin="4080,3458" layerid="11" plated="Y" c_shapetype="group" locked="0" c_rotation="270" c_width="6" c_height="6" c_shape="ELLIPSE" pasteexpansion="0" solderexpansion="0.4"><ellipse cx="4080" cy="3458" rx="3.4" ry="3.4" layerid="8" stroke-width="0" c_etype="pad_outer"/><ellipse cx="4080" cy="3458" rx="3.4" ry="3.4" layerid="7" stroke-width="0" c_etype="pad_outer"/><ellipse c_etype="pad_shell" cx="4080" cy="3458" rx="3" ry="3" layerid="11" stroke-width="0"/><circle c_etype="pad_hole" cx="4080" cy="3458" r="1.8" layerid="11" stroke-width="0"/></g><g c_partid="part_pad" c_etype="pinpart" c_origin="4070,3458" layerid="11" plated="Y" c_shapetype="group" locked="0" c_rotation="270" c_width="6" c_height="6" c_shape="ELLIPSE" pasteexpansion="0" solderexpansion="0.4"><ellipse cx="4070" cy="3458" rx="3.4" ry="3.4" layerid="8" stroke-width="0" c_etype="pad_outer"/><ellipse cx="4070" cy="3458" rx="3.4" ry="3.4" layerid="7" stroke-width="0" c_etype="pad_outer"/><ellipse c_etype="pad_shell" cx="4070" cy="3458" rx="3" ry="3" layerid="11" stroke-width="0"/><circle c_etype="pad_hole" cx="4070" cy="3458" r="1.8" layerid="11" stroke-width="0"/></g><g c_partid="part_pad" c_etype="pinpart" c_origin="4060,3458" layerid="11" plated="Y" c_shapetype="group" locked="0" c_rotation="270" c_width="6" c_height="6" c_shape="ELLIPSE" pasteexpansion="0" solderexpansion="0.4"><ellipse cx="4060" cy="3458" rx="3.4" ry="3.4" layerid="8" stroke-width="0" c_etype="pad_outer"/><ellipse cx="4060" cy="3458" rx="3.4" ry="3.4" layerid="7" stroke-width="0" c_etype="pad_outer"/><ellipse c_etype="pad_shell" cx="4060" cy="3458" rx="3" ry="3" layerid="11" stroke-width="0"/><circle c_etype="pad_hole" cx="4060" cy="3458" r="1.8" layerid="11" stroke-width="0"/></g><g c_partid="part_pad" c_etype="pinpart" c_origin="4050,3458" layerid="11" plated="Y" c_shapetype="group" locked="0" c_rotation="270" c_width="6" c_height="6" c_shape="ELLIPSE" pasteexpansion="0" solderexpansion="0.4"><ellipse cx="4050" cy="3458" rx="3.4" ry="3.4" layerid="8" stroke-width="0" c_etype="pad_outer"/><ellipse cx="4050" cy="3458" rx="3.4" ry="3.4" layerid="7" stroke-width="0" c_etype="pad_outer"/><ellipse c_etype="pad_shell" cx="4050" cy="3458" rx="3" ry="3" layerid="11" stroke-width="0"/><circle c_etype="pad_hole" cx="4050" cy="3458" r="1.8" layerid="11" stroke-width="0"/></g><g c_partid="part_pad" c_etype="pinpart" c_origin="4040,3458" layerid="11" plated="Y" c_shapetype="group" locked="0" c_rotation="270" c_width="6" c_height="6" c_shape="ELLIPSE" pasteexpansion="0" solderexpansion="0.4"><ellipse cx="4040" cy="3458" rx="3.4" ry="3.4" layerid="8" stroke-width="0" c_etype="pad_outer"/><ellipse cx="4040" cy="3458" rx="3.4" ry="3.4" layerid="7" stroke-width="0" c_etype="pad_outer"/><ellipse c_etype="pad_shell" cx="4040" cy="3458" rx="3" ry="3" layerid="11" stroke-width="0"/><circle c_etype="pad_hole" cx="4040" cy="3458" r="1.8" layerid="11" stroke-width="0"/></g></g></g></svg>